<?xml version="1.0" encoding="iso-8859-1"?>
<!-- Generator: Adobe Illustrator 19.0.0, SVG Export Plug-In . SVG Version: 6.00 Build 0)  -->
<svg version="1.1" id="Layer_1" xmlns="http://www.w3.org/2000/svg" xmlns:xlink="http://www.w3.org/1999/xlink" x="0px" y="0px"
	 viewBox="0 0 512 512" style="enable-background:new 0 0 512 512;" xml:space="preserve">
<path style="fill:#FFDA44;" d="M256,512C114.842,512,0,397.158,0,256S114.842,0,256,0s256,114.842,256,256S397.158,512,256,512z"/>
<path style="fill:#FFA733;" d="M256,0L256,0v5.565V512l0,0c141.158,0,256-114.842,256-256S397.158,0,256,0z"/>
<path style="fill:#EE8700;" d="M256,439.652c-101.266,0-183.652-82.391-183.652-183.652S154.733,72.348,256,72.348
	S439.652,154.739,439.652,256S357.266,439.652,256,439.652z"/>
<path style="fill:#CC7400;" d="M439.652,256c0-101.261-82.386-183.652-183.652-183.652v367.304
	C357.266,439.652,439.652,357.261,439.652,256z"/>
<path style="fill:#FFDA44;" d="M263.805,241.239c-17.517-9.261-35.631-18.826-35.631-29.761c0-15.348,12.484-27.826,27.826-27.826
	s27.826,12.478,27.826,27.826c0,9.217,7.473,16.696,16.696,16.696s16.696-7.479,16.696-16.696c0-27.956-18.867-51.548-44.522-58.842
	v-7.94c0-9.217-7.473-16.696-16.696-16.696s-16.696,7.479-16.696,16.696v7.94c-25.655,7.294-44.522,30.886-44.522,58.842
	c0,31.044,29.619,46.707,53.413,59.283c17.517,9.261,35.631,18.826,35.631,29.761c0,15.348-12.484,27.826-27.826,27.826
	s-27.826-12.478-27.826-27.826c0-9.217-7.473-16.696-16.696-16.696s-16.696,7.479-16.696,16.696
	c0,27.956,18.867,51.548,44.522,58.842v7.94c0,9.217,7.473,16.696,16.696,16.696s16.696-7.479,16.696-16.696v-7.94
	c25.655-7.294,44.522-30.886,44.522-58.842C317.217,269.478,287.598,253.815,263.805,241.239z"/>
<g>
	<path style="fill:#FFA733;" d="M272.696,367.304v-7.94c25.655-7.294,44.522-30.886,44.522-58.842
		c0-31.044-29.619-46.707-53.413-59.283c-2.616-1.384-5.226-2.777-7.805-4.176v37.875c14.699,7.976,27.826,16.283,27.826,25.584
		c0,15.348-12.484,27.826-27.826,27.826V384C265.223,384,272.696,376.521,272.696,367.304z"/>
	<path style="fill:#FFA733;" d="M283.826,211.478c0,9.217,7.473,16.696,16.696,16.696s16.696-7.479,16.696-16.696
		c0-27.956-18.867-51.548-44.522-58.842v-7.94c0-9.217-7.473-16.696-16.696-16.696v55.652
		C271.342,183.652,283.826,196.13,283.826,211.478z"/>
</g>
<g>
</g>
<g>
</g>
<g>
</g>
<g>
</g>
<g>
</g>
<g>
</g>
<g>
</g>
<g>
</g>
<g>
</g>
<g>
</g>
<g>
</g>
<g>
</g>
<g>
</g>
<g>
</g>
<g>
</g>
</svg>
